<mxfile host="www.draw.io" modified="2019-12-11T15:02:31.082Z" agent="Mozilla/5.0 (X11; Linux x86_64; rv:71.0) Gecko/20100101 Firefox/71.0" etag="yNf7l0yQ8BKiFf4Ad-6W" version="12.3.9" type="github" pages="1">
  <diagram id="0d29mZ8uIiQTkzwMv5U_" name="Page-1">
    <mxGraphModel dx="1422" dy="776" grid="1" gridSize="10" guides="1" tooltips="1" connect="1" arrows="1" fold="1" page="1" pageScale="1" pageWidth="850" pageHeight="1100" math="0" shadow="0">
      <root>
        <mxCell id="0"/>
        <mxCell id="1" parent="0"/>
        <mxCell id="Jv2K-wEl6j_P-aLTA_m5-10" value="" style="rounded=0;whiteSpace=wrap;html=1;" vertex="1" parent="1">
          <mxGeometry x="170" y="170" width="400" height="280" as="geometry"/>
        </mxCell>
        <mxCell id="Jv2K-wEl6j_P-aLTA_m5-3" value="" style="rounded=0;whiteSpace=wrap;html=1;" vertex="1" parent="1">
          <mxGeometry x="200" y="210" width="340" height="220" as="geometry"/>
        </mxCell>
        <mxCell id="Jv2K-wEl6j_P-aLTA_m5-9" style="edgeStyle=orthogonalEdgeStyle;rounded=0;orthogonalLoop=1;jettySize=auto;html=1;exitX=0.5;exitY=1;exitDx=0;exitDy=0;entryX=0.5;entryY=0;entryDx=0;entryDy=0;dashed=1;" edge="1" parent="1" source="Jv2K-wEl6j_P-aLTA_m5-1" target="Jv2K-wEl6j_P-aLTA_m5-5">
          <mxGeometry relative="1" as="geometry"/>
        </mxCell>
        <mxCell id="Jv2K-wEl6j_P-aLTA_m5-14" style="edgeStyle=orthogonalEdgeStyle;rounded=0;orthogonalLoop=1;jettySize=auto;html=1;exitX=1;exitY=0.25;exitDx=0;exitDy=0;entryX=0;entryY=0.5;entryDx=0;entryDy=0;" edge="1" parent="1" source="Jv2K-wEl6j_P-aLTA_m5-1" target="Jv2K-wEl6j_P-aLTA_m5-12">
          <mxGeometry relative="1" as="geometry"/>
        </mxCell>
        <mxCell id="Jv2K-wEl6j_P-aLTA_m5-15" style="edgeStyle=orthogonalEdgeStyle;rounded=0;orthogonalLoop=1;jettySize=auto;html=1;exitX=1;exitY=0.75;exitDx=0;exitDy=0;entryX=0;entryY=0.5;entryDx=0;entryDy=0;" edge="1" parent="1" source="Jv2K-wEl6j_P-aLTA_m5-1" target="Jv2K-wEl6j_P-aLTA_m5-13">
          <mxGeometry relative="1" as="geometry"/>
        </mxCell>
        <mxCell id="Jv2K-wEl6j_P-aLTA_m5-17" style="edgeStyle=orthogonalEdgeStyle;rounded=0;orthogonalLoop=1;jettySize=auto;html=1;exitX=0.5;exitY=0;exitDx=0;exitDy=0;entryX=0.5;entryY=1;entryDx=0;entryDy=0;dashed=1;" edge="1" parent="1" source="Jv2K-wEl6j_P-aLTA_m5-1" target="Jv2K-wEl6j_P-aLTA_m5-16">
          <mxGeometry relative="1" as="geometry"/>
        </mxCell>
        <mxCell id="Jv2K-wEl6j_P-aLTA_m5-1" value="Pyxis App" style="rounded=0;whiteSpace=wrap;html=1;" vertex="1" parent="1">
          <mxGeometry x="392.5" y="250" width="120" height="60" as="geometry"/>
        </mxCell>
        <mxCell id="Jv2K-wEl6j_P-aLTA_m5-7" style="edgeStyle=orthogonalEdgeStyle;rounded=0;orthogonalLoop=1;jettySize=auto;html=1;exitX=1;exitY=0.5;exitDx=0;exitDy=0;entryX=0;entryY=0.5;entryDx=0;entryDy=0;" edge="1" parent="1" source="Jv2K-wEl6j_P-aLTA_m5-2" target="Jv2K-wEl6j_P-aLTA_m5-1">
          <mxGeometry relative="1" as="geometry"/>
        </mxCell>
        <mxCell id="Jv2K-wEl6j_P-aLTA_m5-19" style="edgeStyle=orthogonalEdgeStyle;rounded=0;orthogonalLoop=1;jettySize=auto;html=1;exitX=0;exitY=0.5;exitDx=0;exitDy=0;startArrow=classic;startFill=1;endArrow=none;endFill=0;" edge="1" parent="1" source="Jv2K-wEl6j_P-aLTA_m5-2" target="Jv2K-wEl6j_P-aLTA_m5-18">
          <mxGeometry relative="1" as="geometry"/>
        </mxCell>
        <mxCell id="Jv2K-wEl6j_P-aLTA_m5-2" value="Auth Sidecar" style="rounded=0;whiteSpace=wrap;html=1;" vertex="1" parent="1">
          <mxGeometry x="220" y="250" width="120" height="60" as="geometry"/>
        </mxCell>
        <mxCell id="Jv2K-wEl6j_P-aLTA_m5-4" value="Pyxis pod" style="text;html=1;strokeColor=none;fillColor=none;align=center;verticalAlign=middle;whiteSpace=wrap;rounded=0;" vertex="1" parent="1">
          <mxGeometry x="332.5" y="220" width="75" height="20" as="geometry"/>
        </mxCell>
        <mxCell id="Jv2K-wEl6j_P-aLTA_m5-5" value="Splunk Sidecar" style="rounded=0;whiteSpace=wrap;html=1;" vertex="1" parent="1">
          <mxGeometry x="392.5" y="350" width="120" height="60" as="geometry"/>
        </mxCell>
        <mxCell id="Jv2K-wEl6j_P-aLTA_m5-11" value="IT Managed PaaS" style="text;html=1;strokeColor=none;fillColor=none;align=center;verticalAlign=middle;whiteSpace=wrap;rounded=0;" vertex="1" parent="1">
          <mxGeometry x="310" y="180" width="120" height="20" as="geometry"/>
        </mxCell>
        <mxCell id="Jv2K-wEl6j_P-aLTA_m5-12" value="MongoDB" style="rounded=0;whiteSpace=wrap;html=1;" vertex="1" parent="1">
          <mxGeometry x="670" y="200" width="120" height="60" as="geometry"/>
        </mxCell>
        <mxCell id="Jv2K-wEl6j_P-aLTA_m5-13" value="VDB" style="rounded=0;whiteSpace=wrap;html=1;" vertex="1" parent="1">
          <mxGeometry x="670" y="300" width="120" height="60" as="geometry"/>
        </mxCell>
        <mxCell id="Jv2K-wEl6j_P-aLTA_m5-16" value="RHC" style="rounded=0;whiteSpace=wrap;html=1;" vertex="1" parent="1">
          <mxGeometry x="393" y="70" width="120" height="60" as="geometry"/>
        </mxCell>
        <mxCell id="Jv2K-wEl6j_P-aLTA_m5-18" value="Customer" style="shape=umlActor;verticalLabelPosition=bottom;labelBackgroundColor=#ffffff;verticalAlign=top;html=1;outlineConnect=0;" vertex="1" parent="1">
          <mxGeometry x="40" y="250" width="30" height="60" as="geometry"/>
        </mxCell>
      </root>
    </mxGraphModel>
  </diagram>
</mxfile>
